<svg height="24" viewBox="0 0 24 24" width="24" xmlns="http://www.w3.org/2000/svg"><g fill="none" fill-rule="evenodd"><path d="m3 1h4v1h1v1h-5v1h-1v-2h1zm-2 3h1v2h-1zm-1 2h1v15h-1zm2 2h3v-3h1v2h2v2h-2v2h-2v-2h-2zm7 2v-1h2v1zm4-1h2v1h-2zm3-1h1v-1h1v2h-2zm2-1v-1h1v-1h1v2zm3 0h1v2h-2v-1h1zm-1 2v2h-2v-1h1v-1zm-12-6h8v1h-8zm8-1h1v-1h4v1h1v2h-1v-1h-5zm7 2v2h-1v-2zm0 2h1v15h-1zm0 16h-3v-1h3zm-4-1v-1h1v1zm-1-1v-2h1v2zm-1-2v-2h1v2zm-1-2v-2h1v2zm-1-2v-1h1v1zm0-1h-6v-1h6zm-6 1h-1v-1h1zm-2 0h1v2h-1zm-1 2h1v2h-1zm-1 2h1v2h-1zm0 3h-1v-1h1zm-4 0h3v1h-3z" fill="#f00"/><path d="m1 10h1v1h1v1h4v-1h10v1h4v-1h1v-1h1v11h-3v-1h-1v-2h-1v-2h-1v-2h-1v-1h-1v-1h-6v1h-1v1h-1v2h-1v2h-1v2h-1v1h-3zm13-2h1v1h-1zm-4 0h1v1h-1zm-8-4h1v1h-1zm14 3h1v1h-1zm2-2h1v1h-1zm0 4h1v1h-1zm2-2h1v1h-1zm1-3h1v1h-1zm-5-1h5v1h-5zm-13 0h5v1h-5zm6 1h6v1h-6zm-5 1h1v3h-3v-1h2z" fill="#000"/></g></svg>