<svg version="1" xmlns="http://www.w3.org/2000/svg" width="426.667" height="426.667" viewBox="0 0 320.000000 320.000000"><path d="M146.5 4.3c-2.2.8-6.5 3-9.5 5l-5.6 3.7-11.4-.3c-11.1-.2-11.7-.1-16.9 2.8-3.7 2.1-6.6 4.8-9.8 9.2-2.5 3.5-5.3 6.8-6.3 7.3s-5.1 1.4-9.2 2c-13.2 1.9-20.7 9-22.9 21.8-1.4 7.9-3.6 10.6-10.7 13.2-7.8 2.9-11.5 6-14.6 12.2-3.1 6.2-3.3 11.1-.6 19.6 2.3 7.4 1.6 10.4-3.2 13-5.3 2.9-11.6 9.2-12.9 12.9-.6 1.9-.9 6.1-.7 9.3.4 5.8.7 6.4 8.3 16.9 3.7 5.1 3.3 9.3-1.4 15.5-6.6 8.5-7.7 14.5-4.2 22.1 2.2 4.8 3.8 6.4 11.6 10.7C33 204.8 37 209.7 37 214c0 1.4-.7 4.8-1.6 7.4-2.2 6.3-1.5 14.2 1.5 18.2 3.4 4.6 7.4 6.5 15.9 7.4 9 .9 11.9 1.9 14.8 5.1 3.4 3.8 4.4 6.5 5.1 13.4.3 3.5 1.4 7.8 2.4 9.5 5.3 8.7 18 9.4 23.7 1.3 6.5-9.3 1-21.3-10.5-22.8-15.7-1.9-20.1-6.2-21-20.6-.7-10.2-3-14.2-10.5-18.6-3.1-1.8-6.6-4.5-7.7-5.9-2.7-3.5-2.8-10.6-.1-17.4 3.4-8.7 2.4-14.6-3.9-22.4-5.6-6.9-5.4-11.2.8-17.9 7.3-8 8.9-13.7 6.4-23.8-2.1-8.9-1.3-10.7 6.6-14.9 7.6-4.1 11.1-8.6 13.3-17.4 2.2-8.4 3.5-10 9.6-11.6 7.8-2.1 10.4-3.8 17.7-11.5l7-7.2 7.7-.6c7.4-.5 11.1-1.8 20.1-6.8 3.7-2.1 4.3-2.1 12.2-.9 6.9 1.1 9.7 1.1 16 0l7.5-1.3 7 3.2c4 1.9 9.4 3.5 12.7 3.8 6.6.7 10.3 2.3 15.2 6.6 1.9 1.6 5.9 4.1 8.9 5.4 7.1 3.1 24.8 20.7 28.8 28.4 1.4 2.9 3.9 6.9 5.4 8.9 1.6 1.9 3.8 6.7 4.9 10.6 4.5 15.1 14.9 23.7 29.2 23.7 16.4 0 29.9-13.4 29.9-29.7 0-7-2-12.5-7.3-20-2.6-3.6-5.3-9-6.5-13.1-2.3-7.7-6.4-13.3-13.2-18-2.8-1.9-5.2-4.8-7.1-8.8-4.2-8.3-10.1-13.8-18.3-17-5.5-2.2-8.1-4.2-13.9-10.1-6-6.1-8.1-7.7-12.6-9-3-.9-7.5-1.6-10-1.6-4.7 0-7.3-1.1-15.7-6.8-8.2-5.5-15.7-6.5-26.4-3.5l-6 1.6-7.2-2.8c-8.4-3.3-15.6-4-21.3-2.2zM134.4 277.4c-4.3 1.9-7.4 6.2-7.4 10.3 0 9.3 8.9 15 17 10.8 8.9-4.6 7.9-17.1-1.6-21.1-4-1.7-4.1-1.7-8 0zM189.9 278.9c-2 2-2.9 3.9-2.9 6.1 0 4.2 4.7 9 8.9 9 7.9 0 11.8-10.5 5.8-15.6-3.9-3.3-8.1-3.1-11.8.5z"/></svg>