<svg height="24" viewBox="0 0 32 24" width="32" xmlns="http://www.w3.org/2000/svg"><g fill="none" fill-rule="evenodd"><path d="m11 8v-3h1v3zm2 0v-3h1v3zm5 0v-3h1v3zm2 0v-3h1v3zm-8-5h-1v-1h1v-1h1v4h-1zm-3 9v-2h1v2zm8 7v-2h1v2zm-3 0v-2h1v2zm8-7v-2h1v2zm-14-3h1v1h-1zm15 0h1v1h-1zm-16 0v-2h1v2zm17 0v-2h1v2zm-18 5v-5h1v5zm19 0v-5h1v5zm-18 0h1v4h-1zm17 0h1v4h-1zm-14-4v-2h1v2zm4 0v-2h1v2zm3 0v-2h1v2zm4 0v-2h1v2zm-6 0h2v1h-2zm0 7v-1h2v1zm10-11h1v-1h1v-1h1v2h-1v3h-1v-2h-1zm-21-1h1v-1h1v2h1v1h-1v2h-1v-3h-1zm4 13h1v2h4v-1h1v2h1v1h2v-1h1v-2h1v1h4v-2h1v5h-16zm11-13v-3h1v-1h1v2h-1v2zm-10 16v1h1v-1zm2 0v1h1v-1zm2 0v1h1v-1zm5 0v1h1v-1zm2 0v1h1v-1zm2 0v1h1v-1z" fill="#000"/><path d="m15 22v-2h1v-3h1v2h1v2h-1v1zm5-2v-1h1v-2h1v-2h1v-2h1v-3h1v4h-1v4h-1v2zm5-11v-1h1v1zm-5-1h1v2h1v3h-1v1h-1zm-1-7h1v1h-1zm7 4v-1h1v1zm-8 4v-1h1v1zm0 1v2h-1v1h-2v-1h-1v-2h1v1h2v-1zm-5-2h1v1h-1zm-2-7h1v1h-1zm1 7v6h-1v-1h-1v-3h1v-2zm-6 0h1v1h-1zm-2-3v-1h1v1zm3 5h1v3h1v2h1v2h1v2h1v1h-3v-2h-1v-4h-1z" fill="#b8b8b8"/></g></svg>