<svg height="24" viewBox="0 0 32 24" width="32" xmlns="http://www.w3.org/2000/svg"><g fill="none" fill-rule="evenodd"><path d="m5.5 3h2v1h-2zm2 1h1v1h-1zm1 0v-1h2v1zm2 0h1v3h-1zm-1 4v-1h1v1zm-1 0h1v1h-1zm0 2h-1v-1h1zm-2-1v-1h1v1zm-1-1v-1h1v1zm-1-1v-3h1v3zm1 7h2v1h-2zm2 1h1v1h-1zm1 0v-1h2v1zm2 0h1v3h-1zm-1 4v-1h1v1zm-1 0h1v1h-1zm0 2h-1v-1h1zm-2-1v-1h1v1zm-1-1v-1h1v1zm-1-1v-3h1v3zm9-15h2v1h-2zm2 1h1v1h-1zm1 0v-1h2v1zm2 0h1v3h-1zm-1 4v-1h1v1zm-1 0h1v1h-1zm0 2h-1v-1h1zm-2-1v-1h1v1zm-1-1v-1h1v1zm-1-1v-3h1v3zm1 7h2v1h-2zm2 1h1v1h-1zm1 0v-1h2v1zm2 0h1v3h-1zm-1 4v-1h1v1zm-1 0h1v1h-1zm0 2h-1v-1h1zm-2-1v-1h1v1zm-1-1v-1h1v1zm-1-1v-3h1v3zm9-15h2v1h-2zm2 1h1v1h-1zm1 0v-1h2v1zm2 0h1v3h-1zm-1 4v-1h1v1zm-1 0h1v1h-1zm0 2h-1v-1h1zm-2-1v-1h1v1zm-1-1v-1h1v1zm-1-1v-3h1v3zm1 7h2v1h-2zm2 1h1v1h-1zm1 0v-1h2v1zm2 0h1v3h-1zm-1 4v-1h1v1zm-1 0h1v1h-1zm0 2h-1v-1h1zm-2-1v-1h1v1zm-1-1v-1h1v1zm-1-1v-3h1v3z" fill="#000"/><path d="m13.5 4h2v1h1v-1h2v3h-1v1h-1v1h-1v-1h-1v-1h-1zm8 0h2v1h1v-1h2v3h-1v1h-1v1h-1v-1h-1v-1h-1zm-16 0h2v1h1v-1h2v3h-1v1h-1v1h-1v-1h-1v-1h-1zm0 11h2v1h1v4h-1v-1h-1v-1h-1z" fill="#b8b8b8"/></g></svg>