<svg height="24" viewBox="0 0 32 24" width="32" xmlns="http://www.w3.org/2000/svg"><g fill="none" fill-rule="evenodd"><path d="m12 5.5h6v1h9v1h-10v-1h-5zm0 2h-5v-1h5zm-5 1h-1v-1h1zm-2 1v-1h1v1zm-1 5v-5h1v5zm1 1v-1h1v1zm1 1v-1h1v1zm1 1v-1h3v-1h2v1h-1v1zm5-2v-1h1v1zm2-2v-1h1v1zm0 4v-1h1v-3h1v3h1v1zm0 1h-3v-1h3zm2-7v-1h1v1zm1 0h1v4h1v1h-2zm2 3h1v1h-1zm0-5h1v1h-1zm1 5v-4h6v1h-4v1h-1v2zm2-1v-1h1v1zm1 2v-2h1v2zm-3 1v-1h3v1zm6-6v-1h1v1zm1-1v-2h1v2z" fill="#000"/><path d="m9 8.5v-1h1v1zm-3 6v-1h1v1zm1 2v-2h1v1h2v1zm4-1v-1h1v1zm0 2v-1h1v-1h1v1h1v1zm3-1v-1h1v1zm2 0v-2h1v2zm2-1v-2h1v-1h1v2h-1v1zm1-4v-1h1v1zm3-1v-1h3v-1h1v-1h1v2h-1v1zm-2 5v-1h1v-2h1v1h1v2z" fill="#b8b8b8"/></g></svg>