<svg height="24" viewBox="0 0 32 24" width="32" xmlns="http://www.w3.org/2000/svg"><g fill="none" fill-rule="evenodd"><path d="m6 6.5h5v1h-5zm-1 2v-1h1v1zm-1 0h1v5h1v1h-1v1h-1zm2 4h5v1h-5zm5 2v-1h4v1h-1v4h-1v1h-1v-2h1v-3zm4 1v-1h2v1zm2 1v-1h4v1zm4 1v-1h5v1zm5-1v-1h1v1zm1-1v-5h-1v-1h1v-1h1v7zm-1-7v-1h1v1zm0-2v1h-3v-1zm-3 2h-2v-1h-1v-1h1v-1h1v2h1zm-1-3v-1h3v1zm3-1v-1h2v1zm2 1v-1h1v1zm-2-3v1h-4v-1zm-4 2h-1v-1h1zm-2 0h1v2h-1v3h2v1h-4v-1h1v-4h1zm-4 5v-1h2v1zm0-2v1h-4v-1zm6 4v-1h5v1zm-9 6h-1v1h-1v-2h-1v-1h2v1h1zm-3 0h-3v-1h3zm-4-1v-1h1v1zm0 3h-1v-1h1zm0 1v-1h2v1zm2-1v-1h3v1zm0 2v-1h4v1zm4-1v-1h1v1z" fill="#000"/><path d="m5 14.5h1v-1h5v1h2v3h-1v-1h-1v-1h-2v1h-3v-1h-1zm10-2v-1h2v1zm-1-1h-2v-1h2zm-8-2h5v1h-5zm12 3h2v1h-2zm3 1h5v1h-5zm-2-7h1v1h1v1h2v-1h3v1h1v1h-1v1h-5v-1h-2z" fill="#b8b8b8"/></g></svg>