<svg height="24" viewBox="0 0 32 24" width="32" xmlns="http://www.w3.org/2000/svg"><g fill="none" fill-rule="evenodd"><path d="m14.5 16v-1h1v1 1h-1v1h-1-1v-1h1v-1zm-3-4v-1h1v1 1h-1v1h-1-1v-1h1v-1zm3-4v-1h1v1 1h-1v1h-1-1v-1h1v-1zm4 4v1h-1v1h-1v1h-1v-1h-1v-1h1v-1h1v-1h1 1zm1-4v-1h1v1 1h-1v1h-1-1v-1h1v-1zm3 4v-1h1v1 1h-1v1h-1-1v-1h1v-1zm-3 4v-1h1v1 1h-1v1h-1-1v-1h1v-1z" fill="#b8b8b8"/><path d="m20.5 14h2v1h-1v2h-1v-2h-1v-1h-2v-1h1v-2h-1v-1h2v-1h1v-2h1v2h1v1h-2v1h-1v2h1zm-9 1v2h-1v-2h-1v-1h2v-1h1v-2h-1v-1h-2v-1h1v-2h1v2h1v1h2v1h-1v2h1v1h-2v1zm1-10h2v1h-2zm3 2h1v2h-1zm-1-1h1v1h-1zm-3 0h1v1h-1zm3 3h1v1h-1zm3-4h2v1h-2zm2 1h1v1h-1zm-3 3h1v1h-1zm0-3h1v1h-1zm7 5h1v2h-1zm-1-1h1v1h-1zm0 3h1v1h-1zm-15-2h1v2h-1zm1 2h1v1h-1zm0-3h1v1h-1zm4 8h2v1h-2zm3-3h1v2h-1zm-1-1h1v1h-1zm-3 3h1v1h-1zm3 0h1v1h-1zm3 1h2v1h-2zm-1-1h1v1h-1zm0-3h1v1h-1zm3 3h1v1h-1z" fill="#000"/></g></svg>