<svg height="16" viewBox="0 0 16 16" width="16" xmlns="http://www.w3.org/2000/svg"><path d="m8.90603005 2.92398004-.00011306.00112445c-.38725689-.21022868-.44620878-.21431222-.85712391-.1094468l.00012156-.00120355c-.08784775.0222052-.17925666.03585761-.27333371.0399865-.13720417.00607702-.27051821-.00853733-.39692997-.04106784-.43919936-.11290225-.51740486-.09639019-.87475849.14461017-.08691182.05918376-.18251117.10861808-.28581742.14621848-.15702006.05715062-.31797417.08191352-.4755196.07768239-.44355467-.00094437-.53679741.05737711-.77861767.41496829-.06801403.09971715-.15200661.19127833-.25169949.27039299-.15503871.12374891-.33091844.20339974-.51264232.24075868-.41183526.09295912-.51645989.20534671-.58032727.58641229-.01953835.16041997-.07366657.3191194-.16494743.46498875-.1324116.21218772-.32311635.36568549-.53839362.45275387-.36730433.14932274-.45148288.35661473-.31314781.69575395.07570832.18524945.09940426.39425315.05639518.60521036-.04533416.22236164-.15791207.41420448-.31223618.55832433-.38738245.36142714-.38148529.6583147-.05399219 1.00841936.12108666.12989797.20779031.29545761.24098607.48375171.0362565.2052582.00368262.40671136-.08113847.58073688-.2752494.6022076-.11623905.9375577.41981415 1.185975.139861.0654244.26396871.1702928.35362485.3107965.09544772.1494256.1376208.3176203.13146676.4823132-.02912329.8195561.31232934 1.1132233 1.00724488 1.1452544.13860044-.0000817.27863356.0398076.40195515.1230696.32967654.2216087.41720945.6696935.19466114.999712-.22254831.3300186-.67003544.4162698-.99971198.1946612-.21482022-.1455012-.32656277-.3865658-.3163528-.6282286-.01687503-.6868195-.30189044-1.0314846-1.1185157-1.0247014-.27981249.0021157-.55538909-.1358312-.71734801-.3891193-.15324653-.239911-.16903272-.5278516-.06807213-.7722972.22804483-.5512355.1155064-.9072131-.50714-1.1647893-.28932062-.12033301-.5131194-.38127262-.57211706-.71228015-.05752743-.32505339.05720773-.63985834.27844834-.85180287.31712944-.33415472.32221212-.62504995-.04848566-.98991838l.00131223.00001664c-.24447329-.24076902-.36598894-.59649113-.29258897-.95817835.06986572-.34268756.29968937-.61220629.59576671-.74661651.3344497-.1506479.41606483-.35913524.25115236-.72159059l.0016718.00066681c-.15242278-.33610446-.13916551-.73985403.07080232-1.07632452.16594979-.2659322.42346236-.43967838.70615609-.50600285.3709528-.10746936.46744727-.22694965.51258401-.65696644.0324227-.31513563.18682982-.61756298.45435886-.83048421.21453652-.17025272.46870628-.25675158.72301958-.26401102.41619539-.0204508.51500089-.07407869.74349478-.44766034.14630336-.25311005.37914195-.4581278.67566713-.56605414.24235131-.08820866.49380218-.09938962.72760168-.04601708.40239084.0811829.48484941.0611574.84152253-.20690827.2105035-.1575.46931924-.25603197.7525245-.26857563.24092044-.01067079.46971274.04239325.6701671.14423918.34612291.16468732.42070391.17572139.78595802.06744175.24845579-.08665604.52402396-.10415812.79823517-.0350664.23638612.05884075.44369402.17455633.61087222.32895368.2506339.20377852.3185957.22771336.6610994.23894847.2462225-.00309152.4964353.05707815.7258248.18735906.1935089.10896143.3519107.25606636.4711982.42655533.2059454.26907322.2472976.2939315.6029772.41373049.2007247.06744797.3902848.17928838.5532957.33602662.1372131.13281231.2430793.28580923.3174001.44976637.1433335.3168827.1649205.3514207.4308291.53528163.1775042.11316394.3336349.26605915.4540205.45564264.0958055.15087464.161262.31234404.1979145.47722582l.0011205-.00055291c.068001.31005265.0931686.36480082.2940953.59966009.1210707.13687484.2189674.29830239.2852214.48033353.2831926.77806549-.1184433 1.63937647-.8965087 1.92256915-.7780655.28319268-1.6393765-.11844323-1.9225692-.89650872-.0302163-.08301854-.0526361-.1669848-.0676339-.2510954-.0561658-.26412172-.0879969-.33081378-.2570574-.53413118-.0539655-.06021823-.1037086-.12564683-.148485-.19612002-.0449383-.07058381-.0831925-.14351256-.1149287-.21804355-.1433028-.33443144-.1622749-.36016218-.4438518-.56573275-.0600643-.04263581-.1176942-.09032419-.1723104-.14307168-.0684879-.0659269-.1291651-.13690064-.1820173-.21177426-.2267798-.32370204-.2542106-.34351505-.6172669-.47848196-.0688592-.02621598-.1367252-.05788646-.2028527-.09537194-.1097458-.06179594-.2081997-.13586046-.294632-.21950496-.27527858-.24445673-.33183725-.25958736-.71946879-.28614667-.08084712-.0065054-.16266894-.01933666-.24435804-.03982645-.11671402-.02905222-.22634758-.07199227-.32757012-.12661842zm-1.88212365 10.90541946c.32193795.0541568.53809477.3585861.48453565.6792424-.05415679.3219379-.35824412.5390344-.67890036.4854753-.32193794-.0541568-.53809477-.3585861-.48453565-.6792424.05381477-.3228776.3579021-.5399741.67890036-.4854753zm2.64363488-.014022c.23920013-.0679066.48811492.0692299.55602152.30843.0679065.2392002-.06923.488115-.30808807.5569612-.23920013.0679065-.48811496-.0692299-.55602149-.30843-.06884622-.2388582.06922993-.488115.30808804-.5569612z" fill-rule="evenodd"/></svg>