<svg x="0" y="0" width="160" height="160" version="1.1" xmlns="http://www.w3.org/2000/svg" xmlns:xlink="http://www.w3.org/1999/xlink"><g fill="#000000" stroke="none" stroke-width="1" stroke-linecap="butt" stroke-linejoin="miter" stroke-miterlimit="10" stroke-dasharray="" stroke-dashoffset="0" font-family="sans-serif" font-weight="normal" font-size="12" text-anchor="start" mix-blend-mode="normal"><path d="M130,80c0,-8.28427 6.71573,-15 15,-15c8.28427,0 15,6.71573 15,15c0,8.28427 -6.71573,15 -15,15c-8.28427,0 -15,-6.71573 -15,-15z"/><path d="M128.91243,69.15638c-1.78109,-8.03398 3.28788,-15.99067 11.32186,-17.77176c8.03398,-1.78109 15.99067,3.28788 17.77176,11.32186c1.78109,8.03398 -3.28788,15.99067 -11.32186,17.77176c-8.03398,1.78109 -15.99067,-3.28788 -17.77176,-11.32186z"/><path d="M125.20934,57.94993c-3.55895,-7.29694 -0.52872,-16.09737 6.76822,-19.65633c7.29694,-3.55895 16.09737,-0.52872 19.65633,6.76822c3.55895,7.29694 0.52872,16.09737 -6.76822,19.65633c-7.29694,3.55895 -16.09737,0.52872 -19.65633,-6.76822z"/><path d="M118.47654,47.13793c-5.165,-6.04743 -4.44964,-15.1369 1.59779,-20.3019c6.04743,-5.165 15.1369,-4.44964 20.3019,1.59779c5.165,6.04743 4.44964,15.1369 -1.59779,20.3019c-6.04743,5.165 -15.1369,4.44964 -20.3019,-1.59779z"/><path d="M108.51884,37.71908c-6.41011,-4.32367 -8.1015,-13.02512 -3.77783,-19.43523c4.32367,-6.41011 13.02512,-8.1015 19.43523,-3.77783c6.41011,4.32367 8.1015,13.02512 3.77783,19.43523c-4.32367,6.41011 -13.02512,8.1015 -19.43523,3.77783z"/><path d="M95.48635,30.88358c-7.11076,-2.24202 -11.05767,-9.82394 -8.81565,-16.93471c2.24202,-7.11076 9.82394,-11.05767 16.93471,-8.81565c7.11076,2.24202 11.05767,9.82394 8.81565,16.93471c-2.24202,7.11076 -9.82394,11.05767 -16.93471,8.81565z"/><path d="M80,27.9c-7.12447,0 -12.9,-5.77553 -12.9,-12.9c0,-7.12447 5.77553,-12.9 12.9,-12.9c7.12447,0 12.9,5.77553 12.9,12.9c0,7.12447 -5.77553,12.9 -12.9,12.9z"/><path d="M63.24631,29.92851c-6.38969,2.13796 -13.30271,-1.30875 -15.44067,-7.69843c-2.13796,-6.38969 1.30875,-13.30271 7.69843,-15.44067c6.38969,-2.13796 13.30271,1.30875 15.44067,7.69843c2.13796,6.38969 -1.30875,13.30271 -7.69843,15.44067z"/><path d="M47.00054,37.76262c-4.96135,3.87623 -12.12563,2.99657 -16.00186,-1.96478c-3.87623,-4.96135 -2.99657,-12.12563 1.96478,-16.00186c4.96135,-3.87623 12.12563,-2.99657 16.00186,1.96478c3.87623,4.96135 2.99657,12.12563 -1.96478,16.00186z"/><path d="M33.53111,51.52383c-3.02996,4.94445 -9.4945,6.49645 -14.43896,3.46649c-4.94445,-3.02996 -6.49645,-9.4945 -3.46649,-14.43896c3.02996,-4.94445 9.4945,-6.49645 14.43896,-3.46649c4.94445,3.02996 6.49645,9.4945 3.46649,14.43896z"/><path d="M25.34317,70.36253c-0.91108,5.167 -5.83834,8.6171 -11.00533,7.70602c-5.167,-0.91108 -8.6171,-5.83834 -7.70602,-11.00533c0.91108,-5.167 5.83834,-8.6171 11.00533,-7.70602c5.167,0.91108 8.6171,5.83834 7.70602,11.00533z"/><path d="M24.74165,92.25048c1.0041,4.52922 -1.85357,9.01487 -6.38279,10.01898c-4.52922,1.0041 -9.01487,-1.85357 -10.01898,-6.38279c-1.0041,-4.52922 1.85357,-9.01487 6.38279,-10.01898c4.52922,-1.0041 9.01487,1.85357 10.01898,6.38279z"/><path d="M33.23882,113.97399c2.3373,3.21702 1.62415,7.71968 -1.59287,10.05698c-3.21702,2.3373 -7.71968,1.62415 -10.05698,-1.59287c-2.3373,-3.21702 -1.62415,-7.71968 1.59287,-10.05698c3.21702,-2.3373 7.71968,-1.62415 10.05698,1.59287z"/><path d="M50.89777,131.43802c2.83604,1.60455 3.83435,5.20436 2.2298,8.0404c-1.60455,2.83604 -5.20436,3.83435 -8.0404,2.2298c-2.83604,-1.60455 -3.83435,-5.20436 -2.2298,-8.0404c1.60455,-2.83604 5.20436,-3.83435 8.0404,-2.2298z"/><path d="M75.77973,140.35263c2.47923,0.17336 4.3485,2.32372 4.17513,4.80294c-0.17336,2.47923 -2.32372,4.3485 -4.80294,4.17513c-2.47923,-0.17336 -4.3485,-2.32372 -4.17513,-4.80294c0.17336,-2.47923 2.32372,-4.3485 4.80294,-4.17513z"/></g></svg>