<?xml version="1.0" encoding="UTF-8" standalone="no"?>
<svg width="48px" height="48px" viewBox="0 0 48 48" version="1.1" xmlns="http://www.w3.org/2000/svg" xmlns:xlink="http://www.w3.org/1999/xlink" xmlns:sketch="http://www.bohemiancoding.com/sketch/ns">
    <!-- Generator: Sketch 3.1.1 (8761) - http://www.bohemiancoding.com/sketch -->
    <title>favicon-48</title>
    <desc>Created with Sketch.</desc>
    <defs></defs>
    <g id="Page-1" stroke="none" stroke-width="1" fill="none" fill-rule="evenodd" sketch:type="MSPage">
        <g id="favicon-48" sketch:type="MSArtboardGroup" fill="#000000">
            <g id="load" sketch:type="MSLayerGroup" transform="translate(24.000000, 24.000000) rotate(-20.000000) translate(-24.000000, -24.000000) ">
                <path d="M31.7624725,10.6199461 C31.991777,10.8778019 32.2567834,11.1113439 32.556,11.313 C32.7652642,11.4545803 32.9827606,11.5747067 33.2058869,11.6738843 L33.204,11.676 C34.269512,12.1486061 34.4134304,12.2492932 34.9386347,13.2208882 C35.0964698,13.5453733 35.2980242,13.8551866 35.544,14.142 C35.6919562,14.3155253 35.8507798,14.4744414 36.0186239,14.6185904 L36.018,14.619 C36.903,15.372 36.96,15.456 37.266,16.602 L37.2671722,16.6012311 C37.3393419,16.8665352 37.4375721,17.1288742 37.563,17.385 C37.6628452,17.5897388 37.7763773,17.7833078 37.9019563,17.9651311 C38.4848156,18.8335654 38.511898,18.9255689 38.571,20.016 L38.5727331,20.0153945 C38.5857265,20.2580664 38.6187386,20.5029093 38.673,20.748 C38.7269184,20.9926127 38.8000145,21.2281005 38.8903598,21.4532322 L38.8903598,21.4532322 C39.1583386,22.1998661 39.179643,22.4205369 39.0669737,23.222746 C39.0229514,23.4752491 39,23.7349605 39,24 C39,26.484 41.016,28.5 43.5,28.5 C45.984,28.5 48,26.484 48,24 C48,23.4188595 47.8896558,22.8633347 47.6887899,22.353248 C47.3633418,21.4849985 47.3485672,21.3048356 47.475,20.361 L47.4712738,20.361409 C47.5371262,19.8589867 47.5182767,19.3366296 47.403,18.813 C47.2581476,18.1550264 46.9748828,17.5638034 46.5905978,17.0626555 C46.0296331,16.2714989 46.0042158,16.151984 45.927,15.111 L45.9252883,15.1115982 L45.9252883,15.1115982 C45.8840022,14.5731326 45.7425411,14.0331973 45.492,13.518 C45.1932827,12.9088838 44.773653,12.3990968 44.277,12.003 C43.3972325,11.3003285 43.3061637,11.1878213 43.0016729,10.2179705 C42.8403241,9.61495263 42.5447158,9.03772261 42.111,8.532 C41.5980094,7.92936054 40.9543775,7.50300403 40.2570852,7.25908017 C39.3030685,6.87597797 39.1360373,6.73877083 38.6385699,5.9071378 L38.6385699,5.9071378 C38.3257025,5.30034472 37.8600166,4.76142306 37.254,4.353 C36.5518695,3.87686777 35.7570632,3.64345792 34.9677327,3.63281737 C33.8269514,3.56329332 33.6280234,3.45566282 32.8212551,2.6362534 C32.3606588,2.14346352 31.7701224,1.75911714 31.08,1.542 C30.2687518,1.28677584 29.4380303,1.29898453 28.6826675,1.52915568 L28.683,1.527 C27.4024591,1.91672983 27.1494546,1.88857578 26.0983821,1.24683755 C25.4940466,0.856483773 24.7737146,0.63 24,0.63 C23.0533335,0.63 22.1865828,0.969054511 21.514436,1.53247539 C20.4869766,2.35118259 20.1534107,2.40098338 18.9591397,2.03159416 L18.9591397,2.03159416 C18.2347621,1.79111825 17.4294848,1.77417175 16.65,2.034 C15.6773447,2.35974057 14.9317503,3.05387576 14.5170598,3.90911125 C13.9485328,5.07493779 13.5539134,5.31275289 12.3978985,5.23509737 C11.53291,5.13201037 10.6286879,5.35759093 9.888,5.937 C8.9508453,6.67009682 8.49920055,7.79469553 8.58402876,8.89859516 L8.58,8.895 C8.673,10.086 8.229,10.59 7.131,10.671 L7.1315864,10.6715226 C6.1590083,10.7466422 5.23457505,11.2706235 4.686,12.165 C4.10796683,13.1093116 4.08553654,14.2368023 4.52768219,15.1663933 L4.524,15.165 C5.19464883,16.5739508 4.88184429,17.388792 3.64496877,18.0054062 L3.64496877,18.0054062 C2.80380637,18.3758881 2.15735009,19.1456226 1.986,20.121 C1.81268526,21.1146712 2.17585164,22.0799113 2.86840064,22.7159912 L2.868,22.716 C4.359,24.081 4.311,25.2 3.102,26.52 L3.10252299,26.5199879 C2.56709132,27.1055073 2.31614929,27.933432 2.502,28.767 C2.69868597,29.6472184 3.33401599,30.3188597 4.12735649,30.5989376 L4.125,30.6 C6.43409015,31.4187845 6.88392354,32.6828654 6.22677726,34.6363778 C5.95003398,35.3071679 6.01769804,36.1014024 6.474,36.732 C7.176,37.695 8.526,37.911 9.492,37.209 C10.458,36.507 10.671,35.154 9.969,34.191 C9.70677873,33.8297424 9.35294333,33.5736088 8.96213404,33.4316268 C7.03597884,32.6283033 6.37471763,31.4500815 7.299,29.169 L7.29773247,29.1695715 L7.29773247,29.1695715 C7.48406605,28.7116038 7.53775482,28.1941776 7.422,27.675 C7.31341758,27.1869167 7.07114962,26.7639424 6.74241306,26.4360366 L6.74241306,26.4360366 L6.744,26.436 C5.48771542,25.1856694 5.38354233,24.0771371 6.77739321,22.6618895 C7.19507116,22.2583296 7.49360259,21.7238402 7.602,21.108 C7.70161971,20.5431234 7.62706957,19.9874347 7.41683296,19.4961808 L7.419,19.497 C6.855,18.174 7.143,17.331 8.607,16.71 L8.60590738,16.7095866 C9.18883475,16.4616473 9.70304298,16.0363392 10.059,15.456 C10.3967008,14.9054251 10.5443505,14.2919139 10.5205619,13.6916096 L10.5205619,13.6916096 L10.521,13.692 C10.479,12.594 10.929,12.096 12.12,12.054 L12.1176736,12.051924 C12.8138945,12.027359 13.509004,11.7903114 14.1,11.328 C14.5069986,11.0104426 14.8224255,10.6185954 15.0421062,10.1864065 C15.6131496,9.17768479 16.0234111,8.9682066 17.2797884,9.12871549 L17.2797884,9.12871549 C17.8304147,9.20985739 18.40796,9.16577873 18.972,8.976 C19.3342184,8.85526053 19.6649473,8.6833239 19.9588237,8.4709162 L19.959,8.472 C21.0076203,7.71204484 21.3303202,7.64330471 22.5797664,8.10108086 C23.0195578,8.27465987 23.4987082,8.37 24,8.37 C24.3298086,8.37 24.6500332,8.32873151 24.9557705,8.25106467 L24.9557705,8.25106467 C26.2104592,7.93833232 26.447869,7.97202711 27.57,8.742 L27.5701616,8.74095242 C27.8931479,8.96236457 28.2539754,9.14035181 28.647,9.264 C28.916447,9.34888908 29.1881441,9.40419294 29.4585776,9.43173184 L29.457,9.435 C30.723,9.561 30.885,9.633 31.761,10.623 L31.7624725,10.6199461 Z M15.267,39.432 C16.119,39.915 16.416,40.995 15.936,41.844 C15.453,42.696 14.373,42.996 13.524,42.516 C12.672,42.033 12.375,40.953 12.855,40.104 C13.338,39.249 14.418,38.949 15.267,39.432 Z M22.734,42.105 C23.478,42.159 24.039,42.801 23.985,43.545 C23.931,44.289 23.289,44.85 22.545,44.799 C21.801,44.745 21.24,44.103 21.294,43.359 C21.345,42.615 21.99,42.054 22.734,42.105 Z" id="Shape" sketch:type="MSShapeGroup"></path>
            </g>
        </g>
    </g>
</svg>