<?xml version="1.0" encoding="UTF-8"?>
<svg width="24px" height="24px" viewBox="0 0 24 24" version="1.1" xmlns="http://www.w3.org/2000/svg" xmlns:xlink="http://www.w3.org/1999/xlink">
    <!-- Generator: Sketch 53.2 (72643) - https://sketchapp.com -->
    <title>controller_00</title>
    <desc>Created with Sketch.</desc>
    <g id="controller_00" stroke="none" stroke-width="1" fill="none" fill-rule="evenodd">
        <path d="M3,1 L7,1 L7,2 L8,2 L8,3 L3,3 L3,4 L2,4 L2,2 L3,2 L3,1 Z M1,4 L2,4 L2,6 L1,6 L1,4 Z M0,6 L1,6 L1,21 L0,21 L0,6 Z M2,8 L5,8 L5,5 L6,5 L6,7 L8,7 L8,9 L6,9 L6,11 L4,11 L4,9 L2,9 L2,8 Z M9,10 L9,9 L11,9 L11,10 L9,10 Z M13,9 L15,9 L15,10 L13,10 L13,9 Z M16,8 L17,8 L17,7 L18,7 L18,9 L16,9 L16,8 Z M18,7 L18,6 L19,6 L19,5 L20,5 L20,7 L18,7 Z M21,7 L22,7 L22,9 L20,9 L20,8 L21,8 L21,7 Z M20,9 L20,11 L18,11 L18,10 L19,10 L19,9 L20,9 Z M8,3 L16,3 L16,4 L8,4 L8,3 Z M16,2 L17,2 L17,1 L21,1 L21,2 L22,2 L22,4 L21,4 L21,3 L16,3 L16,2 Z M23,4 L23,6 L22,6 L22,4 L23,4 Z M23,6 L24,6 L24,21 L23,21 L23,6 Z M23,22 L20,22 L20,21 L23,21 L23,22 Z M19,21 L19,20 L20,20 L20,21 L19,21 Z M18,20 L18,18 L19,18 L19,20 L18,20 Z M17,18 L17,16 L18,16 L18,18 L17,18 Z M16,16 L16,14 L17,14 L17,16 L16,16 Z M15,14 L15,13 L16,13 L16,14 L15,14 Z M15,13 L9,13 L9,12 L15,12 L15,13 Z M9,14 L8,14 L8,13 L9,13 L9,14 Z M7,14 L8,14 L8,16 L7,16 L7,14 Z M6,16 L7,16 L7,18 L6,18 L6,16 Z M5,18 L6,18 L6,20 L5,20 L5,18 Z M5,21 L4,21 L4,20 L5,20 L5,21 Z M1,21 L4,21 L4,22 L1,22 L1,21 Z" id="Shape" fill="#FF0000"></path>
        <path d="M1,10 L2,10 L2,11 L3,11 L3,12 L7,12 L7,11 L17,11 L17,12 L21,12 L21,11 L22,11 L22,10 L23,10 L23,21 L20,21 L20,20 L19,20 L19,18 L18,18 L18,16 L17,16 L17,14 L16,14 L16,13 L15,13 L15,12 L9,12 L9,13 L8,13 L8,14 L7,14 L7,16 L6,16 L6,18 L5,18 L5,20 L4,20 L4,21 L1,21 L1,10 Z M14,8 L15,8 L15,9 L14,9 L14,8 Z M10,8 L11,8 L11,9 L10,9 L10,8 Z M2,4 L3,4 L3,5 L2,5 L2,4 Z M16,7 L17,7 L17,8 L16,8 L16,7 Z M18,5 L19,5 L19,6 L18,6 L18,5 Z M18,9 L19,9 L19,10 L18,10 L18,9 Z M20,7 L21,7 L21,8 L20,8 L20,7 Z M21,4 L22,4 L22,5 L21,5 L21,4 Z M16,3 L21,3 L21,4 L16,4 L16,3 Z M3,3 L8,3 L8,4 L3,4 L3,3 Z M9,4 L15,4 L15,5 L9,5 L9,4 Z M4,5 L5,5 L5,8 L2,8 L2,7 L4,7 L4,5 Z" id="Shape" fill="#000000"></path>
    </g>
</svg>