<?xml version="1.0" encoding="UTF-8"?>
<svg width="32px" height="24px" viewBox="0 0 32 24" version="1.1" xmlns="http://www.w3.org/2000/svg" xmlns:xlink="http://www.w3.org/1999/xlink">
    <!-- Generator: Sketch 53.2 (72643) - https://sketchapp.com -->
    <title>controller_00</title>
    <desc>Created with Sketch.</desc>
    <g id="controller_00" stroke="none" stroke-width="1" fill="none" fill-rule="evenodd">
        <path d="M7,1 L11,1 L11,2 L12,2 L12,3 L7,3 L7,4 L6,4 L6,2 L7,2 L7,1 Z M5,4 L6,4 L6,6 L5,6 L5,4 Z M4,6 L5,6 L5,21 L4,21 L4,6 Z M6,8 L9,8 L9,5 L10,5 L10,7 L12,7 L12,9 L10,9 L10,11 L8,11 L8,9 L6,9 L6,8 Z M13,10 L13,9 L15,9 L15,10 L13,10 Z M17,9 L19,9 L19,10 L17,10 L17,9 Z M20,8 L21,8 L21,7 L22,7 L22,9 L20,9 L20,8 Z M22,7 L22,6 L23,6 L23,5 L24,5 L24,7 L22,7 Z M25,7 L26,7 L26,9 L24,9 L24,8 L25,8 L25,7 Z M24,9 L24,11 L22,11 L22,10 L23,10 L23,9 L24,9 Z M12,3 L20,3 L20,4 L12,4 L12,3 Z M20,2 L21,2 L21,1 L25,1 L25,2 L26,2 L26,4 L25,4 L25,3 L20,3 L20,2 Z M27,4 L27,6 L26,6 L26,4 L27,4 Z M27,6 L28,6 L28,21 L27,21 L27,6 Z M27,22 L24,22 L24,21 L27,21 L27,22 Z M23,21 L23,20 L24,20 L24,21 L23,21 Z M22,20 L22,18 L23,18 L23,20 L22,20 Z M21,18 L21,16 L22,16 L22,18 L21,18 Z M20,16 L20,14 L21,14 L21,16 L20,16 Z M19,14 L19,13 L20,13 L20,14 L19,14 Z M19,13 L13,13 L13,12 L19,12 L19,13 Z M13,14 L12,14 L12,13 L13,13 L13,14 Z M11,14 L12,14 L12,16 L11,16 L11,14 Z M10,16 L11,16 L11,18 L10,18 L10,16 Z M9,18 L10,18 L10,20 L9,20 L9,18 Z M9,21 L8,21 L8,20 L9,20 L9,21 Z M5,21 L8,21 L8,22 L5,22 L5,21 Z" id="Shape" fill="#000000"></path>
        <path d="M5,10 L6,10 L6,11 L7,11 L7,12 L11,12 L11,11 L21,11 L21,12 L25,12 L25,11 L26,11 L26,10 L27,10 L27,21 L24,21 L24,20 L23,20 L23,18 L22,18 L22,16 L21,16 L21,14 L20,14 L20,13 L19,13 L19,12 L13,12 L13,13 L12,13 L12,14 L11,14 L11,16 L10,16 L10,18 L9,18 L9,20 L8,20 L8,21 L5,21 L5,10 Z M18,8 L19,8 L19,9 L18,9 L18,8 Z M14,8 L15,8 L15,9 L14,9 L14,8 Z M6,4 L7,4 L7,5 L6,5 L6,4 Z M20,7 L21,7 L21,8 L20,8 L20,7 Z M22,5 L23,5 L23,6 L22,6 L22,5 Z M22,9 L23,9 L23,10 L22,10 L22,9 Z M24,7 L25,7 L25,8 L24,8 L24,7 Z M25,4 L26,4 L26,5 L25,5 L25,4 Z M20,3 L25,3 L25,4 L20,4 L20,3 Z M7,3 L12,3 L12,4 L7,4 L7,3 Z M13,4 L19,4 L19,5 L13,5 L13,4 Z M8,5 L9,5 L9,8 L6,8 L6,7 L8,7 L8,5 Z" id="Shape" fill="#B8B8B8"></path>
    </g>
</svg>