<?xml version="1.0" encoding="UTF-8"?>
<svg width="32px" height="24px" viewBox="0 0 32 24" version="1.1" xmlns="http://www.w3.org/2000/svg" xmlns:xlink="http://www.w3.org/1999/xlink">
    <!-- Generator: Sketch 53.2 (72643) - https://sketchapp.com -->
    <title>crown_00</title>
    <desc>Created with Sketch.</desc>
    <g id="crown_00" stroke="none" stroke-width="1" fill="none" fill-rule="evenodd" transform="translate(0.000000, 0.000000)">
        <path d="M11,8 L11,5 L12,5 L12,8 L11,8 Z M13,8 L13,5 L14,5 L14,8 L13,8 Z M18,8 L18,5 L19,5 L19,8 L18,8 Z M20,8 L20,5 L21,5 L21,8 L20,8 Z M12,3 L11,3 L11,2 L12,2 L12,1 L13,1 L13,5 L12,5 L12,3 Z M9,12 L9,10 L10,10 L10,12 L9,12 Z M17,19 L17,17 L18,17 L18,19 L17,19 Z M14,19 L14,17 L15,17 L15,19 L14,19 Z M22,12 L22,10 L23,10 L23,12 L22,12 Z M8,9 L9,9 L9,10 L8,10 L8,9 Z M23,9 L24,9 L24,10 L23,10 L23,9 Z M7,9 L7,7 L8,7 L8,9 L7,9 Z M24,9 L24,7 L25,7 L25,9 L24,9 Z M6,14 L6,9 L7,9 L7,14 L6,14 Z M25,14 L25,9 L26,9 L26,14 L25,14 Z M7,14 L8,14 L8,18 L7,18 L7,14 Z M24,14 L25,14 L25,18 L24,18 L24,14 Z M10,10 L10,8 L11,8 L11,10 L10,10 Z M14,10 L14,8 L15,8 L15,10 L14,10 Z M17,10 L17,8 L18,8 L18,10 L17,10 Z M21,10 L21,8 L22,8 L22,10 L21,10 Z M15,10 L17,10 L17,11 L15,11 L15,10 Z M15,17 L15,16 L17,16 L17,17 L15,17 Z M25,6 L26,6 L26,5 L27,5 L27,4 L28,4 L28,6 L27,6 L27,9 L26,9 L26,7 L25,7 L25,6 Z M4,5 L5,5 L5,4 L6,4 L6,6 L7,6 L7,7 L6,7 L6,9 L5,9 L5,6 L4,6 L4,5 Z M8,18 L9,18 L9,20 L13,20 L13,19 L14,19 L14,21 L15,21 L15,22 L17,22 L17,21 L18,21 L18,19 L19,19 L19,20 L23,20 L23,18 L24,18 L24,23 L8,23 L8,18 Z M19,5 L19,2 L20,2 L20,1 L21,1 L21,3 L20,3 L20,5 L19,5 Z M9,21 L9,22 L10,22 L10,21 L9,21 Z M11,21 L11,22 L12,22 L12,21 L11,21 Z M13,21 L13,22 L14,22 L14,21 L13,21 Z M18,21 L18,22 L19,22 L19,21 L18,21 Z M20,21 L20,22 L21,22 L21,21 L20,21 Z M22,21 L22,22 L23,22 L23,21 L22,21 Z" id="Shape" fill="#000000"></path>
        <path d="M15,22 L15,20 L16,20 L16,17 L17,17 L17,19 L18,19 L18,21 L17,21 L17,22 L15,22 Z M20,20 L20,19 L21,19 L21,17 L22,17 L22,15 L23,15 L23,13 L24,13 L24,10 L25,10 L25,14 L24,14 L24,18 L23,18 L23,20 L20,20 Z M25,9 L25,8 L26,8 L26,9 L25,9 Z M20,8 L21,8 L21,10 L22,10 L22,13 L21,13 L21,14 L20,14 L20,8 Z M19,1 L20,1 L20,2 L19,2 L19,1 Z M26,5 L26,4 L27,4 L27,5 L26,5 Z M18,9 L18,8 L19,8 L19,9 L18,9 Z M18,10 L18,12 L17,12 L17,13 L15,13 L15,12 L14,12 L14,10 L15,10 L15,11 L17,11 L17,10 L18,10 Z M13,8 L14,8 L14,9 L13,9 L13,8 Z M11,1 L12,1 L12,2 L11,2 L11,1 Z M12,8 L12,14 L11,14 L11,13 L10,13 L10,10 L11,10 L11,8 L12,8 Z M6,8 L7,8 L7,9 L6,9 L6,8 Z M4,5 L4,4 L5,4 L5,5 L4,5 Z M7,10 L8,10 L8,13 L9,13 L9,15 L10,15 L10,17 L11,17 L11,19 L12,19 L12,20 L9,20 L9,18 L8,18 L8,14 L7,14 L7,10 Z" id="Shape" fill="#B8B8B8"></path>
    </g>
</svg>