<?xml version="1.0" encoding="UTF-8"?>
<svg width="32px" height="24px" viewBox="0 0 32 24" version="1.1" xmlns="http://www.w3.org/2000/svg" xmlns:xlink="http://www.w3.org/1999/xlink">
    <!-- Generator: Sketch 53.2 (72643) - https://sketchapp.com -->
    <title>game_over_00</title>
    <desc>Created with Sketch.</desc>
    <g id="game_over_00" stroke="none" stroke-width="1" fill="none" fill-rule="evenodd">
        <path d="M7,6 L5,6 L5,5 L3,5 L3,10 L5,10 L5,8 L4,8 L4,7 L7,7 L7,10 L6,10 L6,11 L2,11 L2,10 L1,10 L1,5 L2,5 L2,4 L6,4 L6,5 L7,5 L7,6 Z M9,11 L9,5 L10,5 L10,8 L12,8 L12,5 L10,5 L10,4 L14,4 L14,5 L15,5 L15,11 L12,11 L12,9 L10,9 L10,11 L9,11 Z M17,4 L18,4 L18,5 L19,5 L19,6 L20,6 L20,5 L21,5 L21,4 L23,4 L23,11 L21,11 L21,7 L20,7 L20,9 L19,9 L19,7 L18,7 L18,11 L17,11 L17,4 Z M31,5 L27,5 L27,7 L30,7 L30,8 L27,8 L27,10 L31,10 L31,11 L25,11 L25,4 L31,4 L31,5 Z M2,13 L6,13 L6,14 L7,14 L7,19 L6,19 L6,20 L2,20 L2,19 L1,19 L1,14 L2,14 L2,13 Z M3,19 L5,19 L5,14 L3,14 L3,19 Z M9,13 L10,13 L10,18 L9,18 L9,13 Z M10,19 L10,18 L11,18 L11,19 L10,19 Z M11,20 L11,19 L12,19 L12,18 L13,18 L13,13 L15,13 L15,18 L14,18 L14,19 L13,19 L13,20 L11,20 Z M17,20 L17,13 L23,13 L23,14 L19,14 L19,16 L22,16 L22,17 L19,17 L19,19 L23,19 L23,20 L17,20 Z M25,20 L25,13 L30,13 L30,14 L31,14 L31,17 L30,17 L30,18 L31,18 L31,20 L29,20 L29,18 L27,18 L27,20 L25,20 Z M27,17 L29,17 L29,14 L27,14 L27,17 Z" id="Shape" fill="#000000"></path>
    </g>
</svg>