<?xml version="1.0" encoding="UTF-8"?>
<svg width="32px" height="24px" viewBox="0 0 32 24" version="1.1" xmlns="http://www.w3.org/2000/svg" xmlns:xlink="http://www.w3.org/1999/xlink">
    <!-- Generator: Sketch 53.2 (72643) - https://sketchapp.com -->
    <title>hearts_00</title>
    <desc>Created with Sketch.</desc>
    <g id="hearts_00" stroke="none" stroke-width="1" fill="none" fill-rule="evenodd">
        <path d="M5.5,3 L7.5,3 L7.5,4 L5.5,4 L5.5,3 Z M7.5,4 L8.5,4 L8.5,5 L7.5,5 L7.5,4 Z M8.5,4 L8.5,3 L10.5,3 L10.5,4 L8.5,4 Z M10.5,4 L11.5,4 L11.5,7 L10.5,7 L10.5,4 Z M9.5,8 L9.5,7 L10.5,7 L10.5,8 L9.5,8 Z M8.5,8 L9.5,8 L9.5,9 L8.5,9 L8.5,8 Z M8.5,10 L7.5,10 L7.5,9 L8.5,9 L8.5,10 Z M6.5,9 L6.5,8 L7.5,8 L7.5,9 L6.5,9 Z M5.5,8 L5.5,7 L6.5,7 L6.5,8 L5.5,8 Z M4.5,7 L4.5,4 L5.5,4 L5.5,7 L4.5,7 Z M5.5,14 L7.5,14 L7.5,15 L5.5,15 L5.5,14 Z M7.5,15 L8.5,15 L8.5,16 L7.5,16 L7.5,15 Z M8.5,15 L8.5,14 L10.5,14 L10.5,15 L8.5,15 Z M10.5,15 L11.5,15 L11.5,18 L10.5,18 L10.5,15 Z M9.5,19 L9.5,18 L10.5,18 L10.5,19 L9.5,19 Z M8.5,19 L9.5,19 L9.5,20 L8.5,20 L8.5,19 Z M8.5,21 L7.5,21 L7.5,20 L8.5,20 L8.5,21 Z M6.5,20 L6.5,19 L7.5,19 L7.5,20 L6.5,20 Z M5.5,19 L5.5,18 L6.5,18 L6.5,19 L5.5,19 Z M4.5,18 L4.5,15 L5.5,15 L5.5,18 L4.5,18 Z M13.5,3 L15.5,3 L15.5,4 L13.5,4 L13.5,3 Z M15.5,4 L16.5,4 L16.5,5 L15.5,5 L15.5,4 Z M16.5,4 L16.5,3 L18.5,3 L18.5,4 L16.5,4 Z M18.5,4 L19.5,4 L19.5,7 L18.5,7 L18.5,4 Z M17.5,8 L17.5,7 L18.5,7 L18.5,8 L17.5,8 Z M16.5,8 L17.5,8 L17.5,9 L16.5,9 L16.5,8 Z M16.5,10 L15.5,10 L15.5,9 L16.5,9 L16.5,10 Z M14.5,9 L14.5,8 L15.5,8 L15.5,9 L14.5,9 Z M13.5,8 L13.5,7 L14.5,7 L14.5,8 L13.5,8 Z M12.5,7 L12.5,4 L13.5,4 L13.5,7 L12.5,7 Z M13.5,14 L15.5,14 L15.5,15 L13.5,15 L13.5,14 Z M15.5,15 L16.5,15 L16.5,16 L15.5,16 L15.5,15 Z M16.5,15 L16.5,14 L18.5,14 L18.5,15 L16.5,15 Z M18.5,15 L19.5,15 L19.5,18 L18.5,18 L18.5,15 Z M17.5,19 L17.5,18 L18.5,18 L18.5,19 L17.5,19 Z M16.5,19 L17.5,19 L17.5,20 L16.5,20 L16.5,19 Z M16.5,21 L15.5,21 L15.5,20 L16.5,20 L16.5,21 Z M14.5,20 L14.5,19 L15.5,19 L15.5,20 L14.5,20 Z M13.5,19 L13.5,18 L14.5,18 L14.5,19 L13.5,19 Z M12.5,18 L12.5,15 L13.5,15 L13.5,18 L12.5,18 Z M21.5,3 L23.5,3 L23.5,4 L21.5,4 L21.5,3 Z M23.5,4 L24.5,4 L24.5,5 L23.5,5 L23.5,4 Z M24.5,4 L24.5,3 L26.5,3 L26.5,4 L24.5,4 Z M26.5,4 L27.5,4 L27.5,7 L26.5,7 L26.5,4 Z M25.5,8 L25.5,7 L26.5,7 L26.5,8 L25.5,8 Z M24.5,8 L25.5,8 L25.5,9 L24.5,9 L24.5,8 Z M24.5,10 L23.5,10 L23.5,9 L24.5,9 L24.5,10 Z M22.5,9 L22.5,8 L23.5,8 L23.5,9 L22.5,9 Z M21.5,8 L21.5,7 L22.5,7 L22.5,8 L21.5,8 Z M20.5,7 L20.5,4 L21.5,4 L21.5,7 L20.5,7 Z M21.5,14 L23.5,14 L23.5,15 L21.5,15 L21.5,14 Z M23.5,15 L24.5,15 L24.5,16 L23.5,16 L23.5,15 Z M24.5,15 L24.5,14 L26.5,14 L26.5,15 L24.5,15 Z M26.5,15 L27.5,15 L27.5,18 L26.5,18 L26.5,15 Z M25.5,19 L25.5,18 L26.5,18 L26.5,19 L25.5,19 Z M24.5,19 L25.5,19 L25.5,20 L24.5,20 L24.5,19 Z M24.5,21 L23.5,21 L23.5,20 L24.5,20 L24.5,21 Z M22.5,20 L22.5,19 L23.5,19 L23.5,20 L22.5,20 Z M21.5,19 L21.5,18 L22.5,18 L22.5,19 L21.5,19 Z M20.5,18 L20.5,15 L21.5,15 L21.5,18 L20.5,18 Z" id="Shape" fill="#000000"></path>
        <path d="M13.5,4 L15.5,4 L15.5,5 L16.5,5 L16.5,4 L18.5,4 L18.5,7 L17.5,7 L17.5,8 L16.5,8 L16.5,9 L15.5,9 L15.5,8 L14.5,8 L14.5,7 L13.5,7 L13.5,4 Z M21.5,4 L23.5,4 L23.5,5 L24.5,5 L24.5,4 L26.5,4 L26.5,7 L25.5,7 L25.5,8 L24.5,8 L24.5,9 L23.5,9 L23.5,8 L22.5,8 L22.5,7 L21.5,7 L21.5,4 Z M5.5,4 L7.5,4 L7.5,5 L8.5,5 L8.5,4 L10.5,4 L10.5,7 L9.5,7 L9.5,8 L8.5,8 L8.5,9 L7.5,9 L7.5,8 L6.5,8 L6.5,7 L5.5,7 L5.5,4 Z M5.5,15 L7.5,15 L7.5,16 L8.5,16 L8.5,20 L7.5,20 L7.5,19 L6.5,19 L6.5,18 L5.5,18 L5.5,15 Z" id="Shape" fill="#B8B8B8"></path>
    </g>
</svg>