<?xml version="1.0" encoding="UTF-8"?>
<svg width="32px" height="24px" viewBox="0 0 32 24" version="1.1" xmlns="http://www.w3.org/2000/svg" xmlns:xlink="http://www.w3.org/1999/xlink">
    <!-- Generator: Sketch 53.2 (72643) - https://sketchapp.com -->
    <title>index_00</title>
    <desc>Created with Sketch.</desc>
    <g id="index_00" stroke="none" stroke-width="1" fill="none" fill-rule="evenodd">
        <path d="M12,5.5 L18,5.5 L18,6.5 L27,6.5 L27,7.5 L17,7.5 L17,6.5 L12,6.5 L12,5.5 Z M12,7.5 L7,7.5 L7,6.5 L12,6.5 L12,7.5 Z M7,8.5 L6,8.5 L6,7.5 L7,7.5 L7,8.5 Z M5,9.5 L5,8.5 L6,8.5 L6,9.5 L5,9.5 Z M4,14.5 L4,9.5 L5,9.5 L5,14.5 L4,14.5 Z M5,15.5 L5,14.5 L6,14.5 L6,15.5 L5,15.5 Z M6,16.5 L6,15.5 L7,15.5 L7,16.5 L6,16.5 Z M7,17.5 L7,16.5 L10,16.5 L10,15.5 L12,15.5 L12,16.5 L11,16.5 L11,17.5 L7,17.5 Z M12,15.5 L12,14.5 L13,14.5 L13,15.5 L12,15.5 Z M14,13.5 L14,12.5 L15,12.5 L15,13.5 L14,13.5 Z M14,17.5 L14,16.5 L15,16.5 L15,13.5 L16,13.5 L16,16.5 L17,16.5 L17,17.5 L14,17.5 Z M14,18.5 L11,18.5 L11,17.5 L14,17.5 L14,18.5 Z M16,11.5 L16,10.5 L17,10.5 L17,11.5 L16,11.5 Z M17,11.5 L18,11.5 L18,15.5 L19,15.5 L19,16.5 L17,16.5 L17,11.5 Z M19,14.5 L20,14.5 L20,15.5 L19,15.5 L19,14.5 Z M19,9.5 L20,9.5 L20,10.5 L19,10.5 L19,9.5 Z M20,14.5 L20,10.5 L26,10.5 L26,11.5 L22,11.5 L22,12.5 L21,12.5 L21,14.5 L20,14.5 Z M22,13.5 L22,12.5 L23,12.5 L23,13.5 L22,13.5 Z M23,15.5 L23,13.5 L24,13.5 L24,15.5 L23,15.5 Z M20,16.5 L20,15.5 L23,15.5 L23,16.5 L20,16.5 Z M26,10.5 L26,9.5 L27,9.5 L27,10.5 L26,10.5 Z M27,9.5 L27,7.5 L28,7.5 L28,9.5 L27,9.5 Z" id="Shape" fill="#000000"></path>
        <path d="M9,8.5 L9,7.5 L10,7.5 L10,8.5 L9,8.5 Z M6,14.5 L6,13.5 L7,13.5 L7,14.5 L6,14.5 Z M7,16.5 L7,14.5 L8,14.5 L8,15.5 L10,15.5 L10,16.5 L7,16.5 Z M11,15.5 L11,14.5 L12,14.5 L12,15.5 L11,15.5 Z M11,17.5 L11,16.5 L12,16.5 L12,15.5 L13,15.5 L13,16.5 L14,16.5 L14,17.5 L11,17.5 Z M14,16.5 L14,15.5 L15,15.5 L15,16.5 L14,16.5 Z M16,16.5 L16,14.5 L17,14.5 L17,16.5 L16,16.5 Z M18,15.5 L18,13.5 L19,13.5 L19,12.5 L20,12.5 L20,14.5 L19,14.5 L19,15.5 L18,15.5 Z M19,11.5 L19,10.5 L20,10.5 L20,11.5 L19,11.5 Z M22,10.5 L22,9.5 L25,9.5 L25,8.5 L26,8.5 L26,7.5 L27,7.5 L27,9.5 L26,9.5 L26,10.5 L22,10.5 Z M20,15.5 L20,14.5 L21,14.5 L21,12.5 L22,12.5 L22,13.5 L23,13.5 L23,15.5 L20,15.5 Z" id="Shape" fill="#B8B8B8"></path>
    </g>
</svg>