<?xml version="1.0" encoding="UTF-8"?>
<svg width="32px" height="24px" viewBox="0 0 32 24" version="1.1" xmlns="http://www.w3.org/2000/svg" xmlns:xlink="http://www.w3.org/1999/xlink">
    <!-- Generator: Sketch 53.2 (72643) - https://sketchapp.com -->
    <title>placeholder_00</title>
    <desc>Created with Sketch.</desc>
    <g id="placeholder_00" stroke="none" stroke-width="1" fill="none" fill-rule="evenodd">
        <path d="M9,6 L10,6 L10,5 L11,5 L11,7 L9,7 L9,6 Z M21,6 L22,6 L22,5 L23,5 L23,7 L21,7 L21,6 Z M21,18 L22,18 L22,17 L23,17 L23,19 L21,19 L21,18 Z M9,18 L10,18 L10,17 L11,17 L11,19 L9,19 L9,18 Z M16,17 L17,17 L17,16 L18,16 L18,18 L16,18 L16,17 Z M13,11 L14,11 L14,9 L17,9 L17,10 L15,10 L15,12 L13,12 L13,11 Z M16,14 L17,14 L17,12 L19,12 L19,9 L20,9 L20,13 L18,13 L18,15 L16,15 L16,14 Z M7,20 L24,20 L24,4 L25,4 L25,21 L7,21 L7,20 Z" id="Shape" fill="#000000"></path>
        <path d="M15,15 L17,15 L17,17 L15,17 L15,15 Z M15,14 L15,12 L16,12 L16,11 L17,11 L17,9 L14,9 L14,11 L12,11 L12,8 L13,8 L13,7 L18,7 L18,8 L19,8 L19,12 L17,12 L17,14 L15,14 Z M9,6 L9,5 L10,5 L10,6 L9,6 Z M21,6 L21,5 L22,5 L22,6 L21,6 Z M21,18 L21,17 L22,17 L22,18 L21,18 Z M9,18 L9,17 L10,17 L10,18 L9,18 Z M8,4 L8,3 L24,3 L24,4 L8,4 Z M7,4 L8,4 L8,20 L7,20 L7,4 Z" id="Shape" fill="#B8B8B8"></path>
    </g>
</svg>