<?xml version="1.0" encoding="UTF-8"?>
<svg width="32px" height="24px" viewBox="0 0 32 24" version="1.1" xmlns="http://www.w3.org/2000/svg" xmlns:xlink="http://www.w3.org/1999/xlink">
    <!-- Generator: Sketch 53.2 (72643) - https://sketchapp.com -->
    <title>scroll_00</title>
    <desc>Created with Sketch.</desc>
    <g id="scroll_00" stroke="none" stroke-width="1" fill="none" fill-rule="evenodd">
        <path d="M6,6.5 L11,6.5 L11,7.5 L6,7.5 L6,6.5 Z M5,8.5 L5,7.5 L6,7.5 L6,8.5 L5,8.5 Z M4,8.5 L5,8.5 L5,13.5 L6,13.5 L6,14.5 L5,14.5 L5,15.5 L4,15.5 L4,8.5 Z M6,12.5 L11,12.5 L11,13.5 L6,13.5 L6,12.5 Z M11,14.5 L11,13.5 L15,13.5 L15,14.5 L14,14.5 L14,18.5 L13,18.5 L13,19.5 L12,19.5 L12,17.5 L13,17.5 L13,14.5 L11,14.5 Z M15,15.5 L15,14.5 L17,14.5 L17,15.5 L15,15.5 Z M17,16.5 L17,15.5 L21,15.5 L21,16.5 L17,16.5 Z M21,17.5 L21,16.5 L26,16.5 L26,17.5 L21,17.5 Z M26,16.5 L26,15.5 L27,15.5 L27,16.5 L26,16.5 Z M27,15.5 L27,10.5 L26,10.5 L26,9.5 L27,9.5 L27,8.5 L28,8.5 L28,15.5 L27,15.5 Z M26,8.5 L26,7.5 L27,7.5 L27,8.5 L26,8.5 Z M26,6.5 L26,7.5 L23,7.5 L23,6.5 L26,6.5 Z M23,8.5 L21,8.5 L21,7.5 L20,7.5 L20,6.5 L21,6.5 L21,5.5 L22,5.5 L22,7.5 L23,7.5 L23,8.5 Z M22,5.5 L22,4.5 L25,4.5 L25,5.5 L22,5.5 Z M25,4.5 L25,3.5 L27,3.5 L27,4.5 L25,4.5 Z M27,5.5 L27,4.5 L28,4.5 L28,5.5 L27,5.5 Z M25,2.5 L25,3.5 L21,3.5 L21,2.5 L25,2.5 Z M21,4.5 L20,4.5 L20,3.5 L21,3.5 L21,4.5 Z M19,4.5 L20,4.5 L20,6.5 L19,6.5 L19,9.5 L21,9.5 L21,10.5 L17,10.5 L17,9.5 L18,9.5 L18,5.5 L19,5.5 L19,4.5 Z M15,9.5 L15,8.5 L17,8.5 L17,9.5 L15,9.5 Z M15,7.5 L15,8.5 L11,8.5 L11,7.5 L15,7.5 Z M21,11.5 L21,10.5 L26,10.5 L26,11.5 L21,11.5 Z M12,17.5 L11,17.5 L11,18.5 L10,18.5 L10,16.5 L9,16.5 L9,15.5 L11,15.5 L11,16.5 L12,16.5 L12,17.5 Z M9,17.5 L6,17.5 L6,16.5 L9,16.5 L9,17.5 Z M5,16.5 L5,15.5 L6,15.5 L6,16.5 L5,16.5 Z M5,19.5 L4,19.5 L4,18.5 L5,18.5 L5,19.5 Z M5,20.5 L5,19.5 L7,19.5 L7,20.5 L5,20.5 Z M7,19.5 L7,18.5 L10,18.5 L10,19.5 L7,19.5 Z M7,21.5 L7,20.5 L11,20.5 L11,21.5 L7,21.5 Z M11,20.5 L11,19.5 L12,19.5 L12,20.5 L11,20.5 Z" id="Shape" fill="#000000"></path>
        <path d="M5,14.5 L6,14.5 L6,13.5 L11,13.5 L11,14.5 L13,14.5 L13,17.5 L12,17.5 L12,16.5 L11,16.5 L11,15.5 L9,15.5 L9,16.5 L6,16.5 L6,15.5 L5,15.5 L5,14.5 Z M15,12.5 L15,11.5 L17,11.5 L17,12.5 L15,12.5 Z M14,11.5 L12,11.5 L12,10.5 L14,10.5 L14,11.5 Z M6,9.5 L11,9.5 L11,10.5 L6,10.5 L6,9.5 Z M18,12.5 L20,12.5 L20,13.5 L18,13.5 L18,12.5 Z M21,13.5 L26,13.5 L26,14.5 L21,14.5 L21,13.5 Z M19,6.5 L20,6.5 L20,7.5 L21,7.5 L21,8.5 L23,8.5 L23,7.5 L26,7.5 L26,8.5 L27,8.5 L27,9.5 L26,9.5 L26,10.5 L21,10.5 L21,9.5 L19,9.5 L19,6.5 Z" id="Shape" fill="#B8B8B8"></path>
    </g>
</svg>