<?xml version="1.0" encoding="UTF-8"?>
<svg width="32px" height="24px" viewBox="0 0 32 24" version="1.1" xmlns="http://www.w3.org/2000/svg" xmlns:xlink="http://www.w3.org/1999/xlink">
    <!-- Generator: Sketch 54.1 (76490) - https://sketchapp.com -->
    <title>separator_00</title>
    <desc>Created with Sketch.</desc>
    <g id="separator_00" stroke="none" stroke-width="1" fill="none" fill-rule="evenodd">
        <path d="M14.5,16 L14.5,15 L15.5,15 L15.5,16 L15.5,17 L14.5,17 L14.5,18 L13.5,18 L12.5,18 L12.5,17 L13.5,17 L13.5,16 L14.5,16 Z M11.5,12 L11.5,11 L12.5,11 L12.5,12 L12.5,13 L11.5,13 L11.5,14 L10.5,14 L9.5,14 L9.5,13 L10.5,13 L10.5,12 L11.5,12 Z M14.5,8 L14.5,7 L15.5,7 L15.5,8 L15.5,9 L14.5,9 L14.5,10 L13.5,10 L12.5,10 L12.5,9 L13.5,9 L13.5,8 L14.5,8 Z M18.5,12 L18.5,13 L17.5,13 L17.5,14 L16.5,14 L16.5,15 L15.5,15 L15.5,14 L14.5,14 L14.5,13 L15.5,13 L15.5,12 L16.5,12 L16.5,11 L17.5,11 L18.5,11 L18.5,12 Z M19.5,8 L19.5,7 L20.5,7 L20.5,8 L20.5,9 L19.5,9 L19.5,10 L18.5,10 L17.5,10 L17.5,9 L18.5,9 L18.5,8 L19.5,8 Z M22.5,12 L22.5,11 L23.5,11 L23.5,12 L23.5,13 L22.5,13 L22.5,14 L21.5,14 L20.5,14 L20.5,13 L21.5,13 L21.5,12 L22.5,12 Z M19.5,16 L19.5,15 L20.5,15 L20.5,16 L20.5,17 L19.5,17 L19.5,18 L18.5,18 L17.5,18 L17.5,17 L18.5,17 L18.5,16 L19.5,16 Z" id="Combined-Shape" fill="#B8B8B8"></path>
        <path d="M20.5,14 L22.5,14 L22.5,15 L21.5,15 L21.5,17 L20.5,17 L20.5,15 L19.5,15 L19.5,14 L17.5,14 L17.5,13 L18.5,13 L18.5,11 L17.5,11 L17.5,10 L19.5,10 L19.5,9 L20.5,9 L20.5,7 L21.5,7 L21.5,9 L22.5,9 L22.5,10 L20.5,10 L20.5,11 L19.5,11 L19.5,13 L20.5,13 L20.5,14 Z M11.5,15 L11.5,17 L10.5,17 L10.5,15 L9.5,15 L9.5,14 L11.5,14 L11.5,13 L12.5,13 L12.5,11 L11.5,11 L11.5,10 L9.5,10 L9.5,9 L10.5,9 L10.5,7 L11.5,7 L11.5,9 L12.5,9 L12.5,10 L14.5,10 L14.5,11 L13.5,11 L13.5,13 L14.5,13 L14.5,14 L12.5,14 L12.5,15 L11.5,15 Z M12.5,5 L14.5,5 L14.5,6 L12.5,6 L12.5,5 Z M15.5,7 L16.5,7 L16.5,9 L15.5,9 L15.5,7 Z M14.5,6 L15.5,6 L15.5,7 L14.5,7 L14.5,6 Z M11.5,6 L12.5,6 L12.5,7 L11.5,7 L11.5,6 Z M14.5,9 L15.5,9 L15.5,10 L14.5,10 L14.5,9 Z M17.5,5 L19.5,5 L19.5,6 L17.5,6 L17.5,5 Z M19.5,6 L20.5,6 L20.5,7 L19.5,7 L19.5,6 Z M16.5,9 L17.5,9 L17.5,10 L16.5,10 L16.5,9 Z M16.5,6 L17.5,6 L17.5,7 L16.5,7 L16.5,6 Z M23.5,11 L24.5,11 L24.5,13 L23.5,13 L23.5,11 Z M22.5,10 L23.5,10 L23.5,11 L22.5,11 L22.5,10 Z M22.5,13 L23.5,13 L23.5,14 L22.5,14 L22.5,13 Z M7.5,11 L8.5,11 L8.5,13 L7.5,13 L7.5,11 Z M8.5,13 L9.5,13 L9.5,14 L8.5,14 L8.5,13 Z M8.5,10 L9.5,10 L9.5,11 L8.5,11 L8.5,10 Z M12.5,18 L14.5,18 L14.5,19 L12.5,19 L12.5,18 Z M15.5,15 L16.5,15 L16.5,17 L15.5,17 L15.5,15 Z M14.5,14 L15.5,14 L15.5,15 L14.5,15 L14.5,14 Z M11.5,17 L12.5,17 L12.5,18 L11.5,18 L11.5,17 Z M14.5,17 L15.5,17 L15.5,18 L14.5,18 L14.5,17 Z M17.5,18 L19.5,18 L19.5,19 L17.5,19 L17.5,18 Z M16.5,17 L17.5,17 L17.5,18 L16.5,18 L16.5,17 Z M16.5,14 L17.5,14 L17.5,15 L16.5,15 L16.5,14 Z M19.5,17 L20.5,17 L20.5,18 L19.5,18 L19.5,17 Z" id="Combined-Shape" fill="#000000"></path>
    </g>
</svg>