<?xml version="1.0" encoding="UTF-8"?>
<svg width="16px" height="16px" viewBox="0 0 16 16" version="1.1" xmlns="http://www.w3.org/2000/svg" xmlns:xlink="http://www.w3.org/1999/xlink">
    <!-- Generator: Sketch 53.2 (72643) - https://sketchapp.com -->
    <title>logo_00</title>
    <desc>Created with Sketch.</desc>
    <g id="logo_00" stroke="none" stroke-width="1" fill="none" fill-rule="evenodd">
        <g id="Group">
            <rect id="Rectangle" x="0" y="0" width="16" height="16"></rect>
            <path d="M8.90603005,2.92398004 L8.90591699,2.92510449 C8.5186601,2.71487581 8.45970821,2.71079227 8.04879308,2.81565769 L8.04891464,2.81445414 C7.96106689,2.83665934 7.86965798,2.85031175 7.77558093,2.85444064 C7.63837676,2.86051766 7.50506272,2.84590331 7.37865096,2.8133728 C6.9394516,2.70047055 6.8612461,2.71698261 6.50389247,2.95798297 C6.41698065,3.01716673 6.3213813,3.06660105 6.21807505,3.10420145 C6.06105499,3.16135207 5.90010088,3.18611497 5.74255545,3.18188384 C5.29900078,3.18093947 5.20575804,3.23926095 4.96393778,3.59685213 C4.89592375,3.69656928 4.81193117,3.78813046 4.71223829,3.86724512 C4.55719958,3.99099403 4.38131985,4.07064486 4.19959597,4.1080038 C3.78776071,4.20096292 3.68313608,4.31335051 3.6192687,4.69441609 C3.59973035,4.85483606 3.54560213,5.01353549 3.45432127,5.15940484 C3.32190967,5.37159256 3.13120492,5.52509033 2.91592765,5.61215871 C2.54862332,5.76148145 2.46444477,5.96877344 2.60277984,6.30791266 C2.67848816,6.49316211 2.7021841,6.70216581 2.65917502,6.91312302 C2.61384086,7.13548466 2.50126295,7.3273275 2.34693884,7.47144735 C1.95955639,7.83287449 1.96545355,8.12976205 2.29294665,8.47986671 C2.41403331,8.60976468 2.50073696,8.77532432 2.53393272,8.96361842 C2.57018922,9.16887662 2.53761534,9.37032978 2.45279425,9.5443553 C2.17754485,10.1465629 2.3365552,10.481913 2.8726084,10.7303303 C3.0124694,10.7957547 3.13657711,10.9006231 3.22623325,11.0411268 C3.32168097,11.1905524 3.36385405,11.3587471 3.35770001,11.52344 C3.32857672,12.3429961 3.67002935,12.6366633 4.36494489,12.6686944 C4.50354533,12.6686127 4.64357845,12.708502 4.76690004,12.791764 C5.09657658,13.0133727 5.18410949,13.4614575 4.96156118,13.791476 C4.73901287,14.1214946 4.29152574,14.2077458 3.9618492,13.9861372 C3.74702898,13.840636 3.63528643,13.5995714 3.6454964,13.3579086 C3.62862137,12.6710891 3.34360596,12.326424 2.5269807,12.3332072 C2.24716821,12.3353229 1.97159161,12.197376 1.80963269,11.9440879 C1.65638616,11.7041769 1.64059997,11.4162363 1.74156056,11.1717907 C1.96960539,10.6205552 1.85706696,10.2645776 1.23442056,10.0070014 C0.945099939,9.88666839 0.721301161,9.62572878 0.662303503,9.29472125 C0.604776065,8.96966786 0.719511234,8.65486291 0.940751843,8.44291838 C1.25788128,8.10876366 1.26296396,7.81786843 0.892266184,7.453 L0.89357841,7.45301664 C0.649105125,7.21224762 0.527589472,6.85652551 0.600989442,6.49483829 C0.67085516,6.15215073 0.900678805,5.882632 1.19675615,5.74822178 C1.53120585,5.59757388 1.61282098,5.38908654 1.44790851,5.02663119 L1.44958031,5.027298 C1.29715753,4.69119354 1.3104148,4.28744397 1.52038263,3.95097348 C1.68633242,3.68504128 1.94384499,3.5112951 2.22653872,3.44497063 C2.59749152,3.33750127 2.69398599,3.21802098 2.73912273,2.78800419 C2.77154543,2.47286856 2.92595255,2.17044121 3.19348159,1.95751998 C3.40801811,1.78726726 3.66218787,1.7007684 3.91650117,1.69350896 C4.33269656,1.67305816 4.43150206,1.61943027 4.65999595,1.24584862 C4.80629931,0.992738565 5.0391379,0.787720823 5.33566308,0.679794484 C5.57801439,0.591585824 5.82946526,0.580404855 6.06326476,0.633777401 C6.4656556,0.7149603 6.54811417,0.694934804 6.90478729,0.426869134 C7.11529079,0.269369127 7.37410653,0.17083716 7.65731179,0.158293503 C7.89823223,0.147622713 8.12702453,0.20068675 8.32747889,0.302532676 C8.6736018,0.467220003 8.7481828,0.478254067 9.11343691,0.369974427 C9.3618927,0.283318391 9.63746087,0.265816308 9.91167208,0.334908033 C10.1480582,0.393748781 10.3553661,0.50946436 10.5225443,0.663861709 C10.7731782,0.867640229 10.84114,0.891575065 11.1836437,0.902810184 C11.4298662,0.899718663 11.680079,0.959888331 11.9094685,1.09016924 C12.1029774,1.19913067 12.2613792,1.3462356 12.3806667,1.51672457 C12.5866121,1.78579779 12.6279643,1.81065607 12.9836439,1.93045506 C13.1843686,1.99790303 13.3739287,2.10974344 13.5369396,2.26648168 C13.6741527,2.39929399 13.7800189,2.55229091 13.8543397,2.71624805 C13.9976732,3.03313075 14.0192602,3.06766875 14.2851688,3.25152968 C14.462673,3.36469362 14.6188037,3.51758883 14.7391893,3.70717232 C14.8349948,3.85804696 14.9004513,4.01951636 14.9371038,4.18439814 L14.9382243,4.18384523 C15.0062253,4.49389788 15.0313929,4.54864605 15.2323196,4.78350532 C15.3533903,4.92038016 15.451287,5.08180771 15.517541,5.26383885 C15.8007336,6.04190434 15.3990977,6.90321532 14.6210323,7.186408 C13.8429668,7.46960068 12.9816558,7.06796477 12.6984631,6.28989928 C12.6682468,6.20688074 12.645827,6.12291448 12.6308292,6.03880388 C12.5746634,5.77468216 12.5428323,5.7079901 12.3737718,5.5046727 C12.3198063,5.44445447 12.2700632,5.37902587 12.2252868,5.30855268 C12.1803485,5.23796887 12.1420943,5.16504012 12.1103581,5.09050913 C11.9670553,4.75607769 11.9480832,4.73034695 11.6665063,4.52477638 C11.606442,4.48214057 11.5488121,4.43445219 11.4941959,4.3817047 C11.425708,4.3157778 11.3650308,4.24480406 11.3121786,4.16993044 C11.0853988,3.8462284 11.057968,3.82641539 10.6949117,3.69144848 C10.6260525,3.6652325 10.5581865,3.63356202 10.492059,3.59607654 C10.3823132,3.5342806 10.2838593,3.46021608 10.197427,3.37657158 C9.92214842,3.13211485 9.86558975,3.11698422 9.47795821,3.09042491 C9.39711109,3.08391951 9.31528927,3.07108825 9.23360017,3.05059846 C9.11688615,3.02154624 9.00725259,2.97860619 8.90603005,2.92398004 L8.90603005,2.92398004 Z M7.0239064,13.8293995 C7.34584435,13.8835563 7.56200117,14.1879856 7.50844205,14.5086419 C7.45428526,14.8305798 7.15019793,15.0476763 6.82954169,14.9941172 C6.50760375,14.9399604 6.29144692,14.6355311 6.34500604,14.3148748 C6.39882081,13.9919972 6.70290814,13.7749007 7.0239064,13.8293995 Z M9.66754128,13.8153775 C9.90674141,13.7474709 10.1556562,13.8846074 10.2235628,14.1238075 C10.2914693,14.3630077 10.1543328,14.6119225 9.91547473,14.6807687 C9.6762746,14.7486752 9.42735977,14.6115388 9.35945324,14.3723387 C9.29060702,14.1334805 9.42868317,13.8842237 9.66754128,13.8153775 Z" id="Shape" fill="#000000"></path>
        </g>
    </g>
</svg>